<?xml version="1.0" standalone="no"?>
<!DOCTYPE svg PUBLIC "-//W3C//DTD SVG 20010904//EN"
 "http://www.w3.org/TR/2001/REC-SVG-20010904/DTD/svg10.dtd">
<svg version="1.0" xmlns="http://www.w3.org/2000/svg"
 width="1024.000000pt" height="1024.000000pt" viewBox="0 0 1024.000000 1024.000000"
 preserveAspectRatio="xMidYMid meet">
<metadata>
Created by potrace 1.14, written by Peter Selinger 2001-2017
</metadata>
<g transform="translate(0.000000,1024.000000) scale(0.100000,-0.100000)"
fill="#000000" stroke="none">
<path d="M4555 10140 c-4 -6 -16 -8 -27 -4 -16 5 -19 3 -12 -7 6 -12 5 -12 -9
0 -15 12 -17 11 -17 -3 0 -9 -5 -16 -11 -16 -6 0 -8 7 -5 16 5 14 4 15 -9 4
-8 -7 -15 -9 -15 -4 0 5 -5 2 -10 -6 -7 -11 -10 -11 -10 -2 0 7 -5 10 -10 7
-6 -4 -7 -12 -3 -18 4 -8 1 -7 -9 1 -13 10 -18 10 -24 1 -5 -8 -3 -10 7 -4 12
7 12 5 1 -6 -10 -11 -14 -11 -21 -1 -6 9 -13 8 -31 -8 -18 -16 -25 -17 -32 -8
-6 10 -8 10 -8 1 0 -7 -6 -13 -14 -13 -8 0 -17 -6 -19 -12 -4 -10 -6 -10 -6
-1 -1 7 -8 10 -17 6 -13 -5 -13 -8 -2 -15 9 -7 5 -8 -15 -5 -21 3 -25 1 -17
-8 8 -9 4 -11 -17 -7 -22 4 -25 2 -19 -13 6 -16 4 -16 -11 -4 -11 9 -14 10 -9
2 4 -8 1 -13 -9 -13 -10 0 -13 -5 -9 -12 6 -10 4 -10 -8 0 -13 10 -18 10 -24
1 -5 -8 -3 -9 6 -4 8 5 11 4 7 -2 -4 -6 -20 -13 -37 -16 -16 -4 -30 -12 -30
-18 0 -8 6 -7 18 2 15 13 16 12 4 -3 -7 -9 -22 -15 -32 -13 -12 2 -17 -1 -14
-9 3 -8 -4 -16 -16 -19 -15 -4 -19 -10 -14 -19 6 -10 3 -9 -10 1 -15 12 -17
12 -14 0 2 -8 -3 -13 -9 -11 -7 1 -13 -4 -13 -10 0 -7 -10 -24 -21 -38 -11
-14 -17 -19 -13 -11 5 9 3 12 -4 7 -7 -4 -12 -14 -12 -22 0 -8 -4 -12 -10 -9
-5 3 -10 2 -10 -3 0 -4 -9 -18 -20 -30 -12 -12 -18 -22 -15 -22 3 0 -3 -10
-15 -22 -11 -12 -20 -28 -20 -35 0 -7 -4 -13 -9 -13 -5 0 -16 -11 -25 -25 -15
-23 -15 -24 1 -19 10 3 7 -2 -7 -10 -14 -8 -21 -15 -16 -16 6 0 1 -7 -10 -16
-10 -8 -14 -13 -8 -10 6 3 11 -1 11 -8 0 -8 -6 -12 -13 -9 -6 2 -15 -1 -20 -8
-4 -8 -3 -10 4 -5 7 4 12 2 12 -3 0 -6 -4 -11 -10 -11 -5 0 -10 -7 -10 -16 0
-8 -4 -13 -9 -9 -6 3 -8 -4 -6 -15 2 -11 -1 -20 -6 -20 -6 0 -8 -9 -4 -19 4
-13 -2 -25 -18 -38 -13 -10 -22 -24 -19 -32 3 -8 0 -11 -6 -7 -6 4 -9 -4 -8
-19 2 -13 0 -22 -4 -20 -5 3 -11 -2 -14 -11 -4 -10 -2 -13 6 -7 7 4 3 -6 -10
-21 -12 -16 -19 -32 -17 -36 3 -5 1 -11 -5 -15 -7 -4 -7 -12 0 -25 8 -16 7
-18 -4 -14 -18 7 -30 -12 -15 -22 8 -5 9 -3 4 6 -6 9 -4 11 5 5 10 -6 9 -11
-4 -21 -13 -9 -14 -13 -4 -17 8 -3 9 -6 1 -6 -6 -1 -9 -10 -5 -23 4 -16 2 -19
-9 -13 -12 8 -12 6 0 -8 7 -9 10 -17 5 -17 -4 0 -3 -5 4 -12 15 -15 16 -31 0
-22 -7 4 -8 3 -4 -5 4 -6 11 -9 16 -6 12 7 17 -62 6 -82 -15 -26 -16 -46 -4
-60 8 -11 7 -12 -8 -7 -10 4 -16 4 -12 -1 4 -4 2 -15 -5 -23 -10 -13 -9 -14 3
-7 13 8 13 7 1 -8 -7 -9 -10 -17 -5 -17 4 0 -1 -7 -12 -16 -10 -8 -13 -13 -7
-9 14 7 7 -20 -11 -44 -9 -12 -8 -13 3 -6 10 6 12 4 7 -4 -5 -7 -15 -10 -23
-7 -8 3 -12 2 -9 -3 3 -4 -5 -19 -17 -32 -12 -13 -22 -30 -22 -39 0 -8 -6 -14
-14 -12 -9 2 -11 -3 -7 -14 4 -11 2 -15 -8 -11 -8 3 -13 -1 -12 -11 0 -9 -4
-16 -11 -15 -8 2 -10 -4 -6 -14 4 -10 2 -14 -5 -9 -6 3 -14 1 -18 -5 -4 -8 -3
-9 4 -5 7 4 12 3 12 -2 0 -6 -7 -13 -16 -16 -10 -4 -13 -13 -9 -28 4 -14 3
-18 -2 -11 -7 10 -13 8 -25 -7 -9 -10 -13 -20 -9 -22 5 -2 -1 -12 -12 -23 -11
-11 -16 -14 -12 -6 5 9 4 12 -3 7 -9 -5 -9 -13 -2 -26 8 -16 7 -18 -4 -14 -12
4 -14 -1 -11 -23 2 -15 2 -22 -1 -15 -8 17 -21 15 -28 -4 -3 -8 -2 -12 4 -9 6
3 10 2 10 -3 0 -6 -7 -13 -16 -16 -9 -4 -14 -13 -10 -21 3 -8 1 -15 -5 -15 -6
0 -8 -4 -4 -9 3 -5 1 -12 -5 -16 -6 -4 -8 -11 -5 -16 3 -5 0 -6 -7 -4 -8 3
-14 -2 -15 -12 -3 -34 -8 -48 -21 -53 -8 -3 -14 -10 -14 -15 0 -6 -5 -16 -11
-24 -9 -12 -9 -13 1 -7 17 10 15 -9 -3 -27 -8 -8 -11 -17 -8 -21 4 -3 1 -6 -6
-6 -7 0 -10 -4 -7 -9 9 -14 -5 -42 -16 -35 -6 4 -5 -4 2 -16 7 -13 8 -20 2
-16 -6 3 -13 2 -17 -4 -3 -5 0 -10 7 -10 9 -1 7 -5 -4 -14 -14 -10 -15 -15 -5
-26 9 -10 9 -11 -1 -6 -13 8 -36 -39 -26 -55 3 -5 -1 -9 -8 -9 -10 0 -9 -3 1
-9 12 -8 8 -11 -15 -16 -16 -4 -34 -8 -41 -10 -7 -3 -10 2 -6 12 5 12 2 15 -8
11 -9 -4 -14 2 -15 19 -3 40 -26 86 -35 71 -6 -9 -9 -9 -9 -1 0 6 5 15 10 18
13 8 3 25 -13 21 -7 -1 -9 -1 -4 1 4 3 7 9 7 14 0 6 -4 8 -8 5 -4 -2 -9 5 -9
17 -2 17 0 18 7 7 7 -11 9 -10 7 7 0 12 -5 19 -10 16 -5 -3 -8 0 -5 8 2 7 -1
25 -8 38 -7 14 -11 28 -8 33 3 4 -2 5 -11 2 -11 -5 -14 -2 -9 10 3 9 11 13 16
10 6 -4 2 5 -7 20 -10 14 -15 35 -12 45 4 15 1 18 -12 14 -9 -4 -13 -3 -9 2 4
4 3 14 -3 22 -6 7 -8 13 -5 13 4 0 2 9 -4 20 -7 12 -16 18 -23 13 -8 -4 -7 -1
1 10 12 14 11 16 -8 12 -18 -4 -20 -2 -9 11 10 12 9 13 -6 7 -15 -5 -17 -3
-12 11 4 10 3 15 -3 11 -6 -3 -10 -1 -10 4 0 6 -4 11 -9 11 -5 0 -7 -10 -5
-22 4 -22 4 -22 -6 1 -6 14 -16 21 -25 18 -10 -4 -12 -1 -9 11 5 14 3 13 -10
-2 -16 -20 -16 -20 -17 0 0 11 -3 14 -6 6 -4 -10 -8 -9 -17 4 -10 13 -15 14
-21 4 -6 -9 -4 -11 6 -5 8 5 11 4 6 -1 -4 -4 -16 -9 -25 -9 -9 -1 -30 -2 -45
-3 -20 -1 -26 -6 -21 -14 6 -10 5 -10 -7 -1 -13 10 -19 10 -35 -3 -10 -8 -12
-12 -4 -8 9 4 12 3 7 -2 -5 -5 -14 -9 -20 -9 -7 -1 -11 -7 -9 -14 1 -7 -2 -10
-7 -6 -6 3 -7 13 -4 23 4 13 2 13 -10 -3 -20 -24 -22 -39 -4 -29 6 4 8 3 4 -1
-10 -12 -38 -15 -31 -4 3 5 0 9 -5 9 -6 0 -11 -10 -11 -22 0 -17 -3 -19 -9
-10 -6 10 -10 8 -15 -10 -5 -19 -8 -21 -17 -8 -8 12 -10 10 -6 -11 3 -22 1
-26 -17 -22 -17 4 -18 3 -6 -6 13 -9 13 -11 -3 -11 -9 0 -16 -6 -15 -12 2 -7
-3 -12 -11 -10 -9 2 -11 -3 -7 -14 5 -12 2 -15 -10 -10 -14 5 -15 4 -5 -8 9
-11 8 -15 -6 -20 -15 -6 -15 -8 -3 -16 13 -8 12 -10 -2 -10 -17 0 -30 -27 -32
-65 -1 -11 -6 -26 -10 -34 -7 -10 -6 -12 4 -6 10 6 12 4 7 -9 -4 -11 -3 -15 4
-10 8 4 9 -1 4 -16 -5 -15 -4 -20 4 -16 10 7 16 -14 12 -38 -1 -5 5 -6 13 -3
9 4 18 1 22 -5 4 -7 3 -8 -4 -4 -7 4 -12 2 -12 -3 0 -6 9 -11 20 -11 11 0 20
-7 20 -15 0 -8 7 -15 16 -15 8 0 12 -5 8 -11 -4 -8 0 -8 15 0 17 10 20 9 15
-4 -7 -18 22 -21 30 -2 3 6 3 2 0 -11 -5 -20 -3 -21 19 -13 22 9 24 7 19 -11
-4 -18 -1 -20 26 -16 17 2 28 0 25 -5 -3 -5 10 -23 28 -40 18 -18 29 -27 26
-20 -4 6 -3 14 3 18 6 3 10 -3 10 -16 0 -17 4 -20 21 -16 16 4 19 2 15 -10 -5
-13 -4 -14 9 -3 12 10 15 10 15 0 0 -7 8 -10 19 -7 14 3 18 1 14 -9 -3 -8 1
-14 9 -14 7 0 22 -11 32 -25 10 -13 22 -22 27 -19 5 3 6 -2 3 -10 -3 -9 -1
-16 6 -16 6 0 8 -5 4 -12 -5 -8 -2 -9 11 -4 15 5 16 4 5 -9 -11 -14 -10 -17 8
-21 13 -4 19 -12 17 -25 -2 -10 1 -22 7 -25 7 -4 8 -2 4 4 -4 7 -5 12 -2 12 7
0 40 -73 37 -83 -1 -5 3 -6 9 -2 5 3 10 -3 10 -13 0 -11 7 -22 15 -26 8 -3 14
-11 13 -18 -2 -7 2 -12 8 -11 7 1 10 -6 7 -20 -4 -18 -3 -19 6 -7 9 12 11 11
11 -8 0 -13 4 -20 10 -17 6 3 7 -1 4 -9 -7 -18 29 -69 41 -58 4 4 6 0 5 -8 -5
-30 0 -42 14 -37 10 4 13 1 9 -10 -3 -8 -1 -18 6 -22 7 -4 13 -18 14 -29 1
-12 5 -22 9 -22 4 0 8 -6 8 -14 0 -7 7 -19 15 -26 8 -7 13 -15 11 -19 -6 -10
21 -31 30 -23 5 4 2 -1 -6 -11 -11 -15 -11 -20 -1 -26 9 -6 2 -10 -18 -13 -26
-4 -31 -2 -26 11 5 13 4 14 -6 4 -7 -7 -17 -13 -22 -13 -4 0 -5 6 -1 13 6 9 4
9 -8 -1 -12 -9 -18 -10 -23 -2 -5 8 -11 8 -19 1 -7 -6 -23 -9 -35 -6 -18 3
-20 1 -12 -9 9 -10 7 -13 -6 -13 -26 1 -73 -14 -73 -23 0 -4 -7 -11 -16 -14
-15 -6 -15 -4 -3 11 13 17 13 17 -7 1 -11 -10 -26 -18 -32 -18 -7 0 -12 -4
-12 -10 0 -5 -7 -10 -15 -10 -8 0 -15 -6 -15 -12 0 -10 -2 -10 -8 0 -7 9 -14
8 -32 -8 -18 -16 -25 -17 -32 -8 -4 7 -8 9 -8 3 0 -5 -11 -15 -25 -22 -14 -6
-23 -8 -20 -3 3 4 -2 11 -11 14 -12 5 -15 2 -10 -11 5 -16 4 -16 -8 1 -9 11
-21 16 -32 12 -11 -4 -15 -2 -11 7 3 8 -1 14 -9 14 -7 0 -10 -5 -7 -10 4 -6
-4 -3 -17 6 -18 12 -27 14 -37 5 -10 -8 -13 -7 -13 3 0 11 -2 11 -10 -1 -8
-12 -10 -12 -10 -1 0 11 -3 11 -15 1 -8 -7 -15 -8 -15 -3 0 10 -66 10 -77 0
-3 -4 -12 -2 -20 4 -10 9 -13 8 -13 -2 0 -12 -2 -12 -9 0 -6 9 -11 10 -15 2
-4 -6 -12 -11 -17 -11 -6 0 -7 6 -3 13 6 8 3 8 -9 -1 -9 -8 -21 -11 -27 -7 -5
3 -10 0 -10 -7 0 -8 -5 -6 -11 5 -9 15 -13 16 -27 5 -10 -9 -13 -9 -9 -1 5 7
-1 16 -13 23 -11 6 -20 7 -20 3 0 -4 -7 2 -16 13 -8 10 -13 13 -9 7 3 -7 2
-13 -4 -13 -5 0 -12 6 -14 13 -4 9 -6 9 -6 -1 -1 -7 -5 -11 -11 -7 -5 3 -6 13
-3 23 5 14 2 13 -11 -3 -10 -11 -15 -15 -12 -9 2 5 -6 10 -19 10 -13 0 -21 -4
-19 -8 3 -5 10 -5 16 -2 7 4 8 2 4 -4 -4 -7 -17 -10 -29 -8 -12 2 -33 -3 -46
-11 -13 -8 -20 -10 -17 -4 5 7 1 9 -8 5 -9 -3 -14 -10 -11 -14 2 -4 -10 -6
-27 -4 -18 2 -35 -1 -40 -8 -5 -9 -8 -9 -8 -1 0 12 -17 12 -37 0 -8 -5 -13 -3
-13 5 0 9 -3 9 -10 -2 -9 -13 -10 -13 -10 0 0 10 -3 11 -8 4 -4 -6 -15 -10
-24 -8 -10 1 -23 -5 -29 -14 -10 -16 -10 -15 -5 1 6 19 -10 24 -16 5 -3 -7
-21 -13 -40 -13 -20 -1 -44 -8 -54 -16 -10 -8 -15 -9 -11 -2 5 8 1 11 -12 10
-16 -1 -18 -4 -8 -16 10 -12 9 -13 -7 -4 -15 8 -23 7 -34 -4 -12 -12 -16 -12
-23 -1 -7 10 -9 10 -9 1 0 -7 -3 -12 -7 -12 -26 4 -53 -2 -48 -12 4 -6 1 -10
-6 -8 -26 3 -40 -1 -35 -10 4 -5 -5 -6 -21 -2 -21 6 -32 3 -46 -13 -10 -12
-15 -14 -11 -6 7 13 5 13 -9 2 -9 -8 -21 -11 -27 -7 -5 3 -13 -1 -16 -9 -3 -9
-10 -16 -16 -16 -5 0 -7 4 -4 9 4 5 -2 8 -11 6 -10 -2 -21 -4 -25 -4 -5 -1 -8
-9 -8 -18 0 -10 -4 -14 -8 -8 -10 14 -54 14 -48 0 3 -8 -4 -10 -20 -7 -13 2
-32 -2 -41 -9 -12 -10 -14 -10 -9 -1 8 14 -6 16 -20 3 -5 -5 -31 -12 -59 -15
-27 -2 -51 -5 -53 -5 -2 -1 -1 -5 2 -10 4 -5 -5 -8 -19 -6 -14 1 -28 -2 -31
-6 -3 -5 -14 -9 -24 -9 -10 0 -22 -5 -26 -12 -5 -7 -3 -8 6 -3 8 5 11 4 7 -2
-3 -5 -20 -8 -37 -7 -26 2 -30 -1 -25 -14 5 -14 4 -15 -6 -5 -15 15 -33 17
-24 3 3 -5 -1 -10 -10 -10 -10 0 -13 -5 -9 -12 6 -10 4 -10 -7 -3 -22 16 -54
12 -53 -7 1 -11 -5 -15 -17 -13 -11 2 -19 -2 -19 -8 0 -7 -4 -6 -10 3 -6 9
-10 10 -10 3 0 -7 -9 -10 -21 -8 -17 3 -19 1 -9 -10 9 -11 6 -13 -14 -11 -18
2 -26 -2 -27 -13 0 -9 -3 -11 -5 -4 -3 7 -12 9 -20 6 -7 -3 -11 -10 -7 -16 3
-5 1 -7 -4 -4 -12 7 -70 -10 -92 -27 -7 -5 -20 -11 -28 -12 -9 -2 -21 -8 -27
-15 -8 -9 -7 -10 4 -4 12 7 13 6 2 -6 -11 -12 -14 -12 -22 1 -9 13 -14 7 -11
-12 0 -4 -8 -5 -19 -3 -12 2 -18 0 -15 -5 3 -5 -6 -12 -20 -16 -14 -3 -22 -11
-18 -17 4 -6 0 -8 -11 -4 -10 4 -15 3 -11 -3 3 -6 -4 -10 -17 -10 -18 0 -20
-2 -8 -10 12 -8 10 -10 -8 -10 -15 0 -21 -4 -16 -12 5 -7 2 -9 -9 -5 -11 4
-14 2 -10 -9 3 -8 2 -14 -3 -12 -5 2 -10 -1 -11 -6 0 -5 -8 -13 -17 -18 -9 -5
-16 -18 -16 -29 0 -11 -5 -17 -10 -14 -9 5 -15 -15 -11 -38 1 -4 -5 -10 -13
-13 -9 -3 -12 -12 -9 -21 4 -10 2 -14 -4 -10 -16 10 -22 -14 -11 -37 7 -12 7
-16 0 -12 -5 3 -16 -2 -23 -11 -10 -12 -10 -14 -1 -9 6 4 12 3 12 -2 0 -6 -7
-12 -15 -16 -8 -3 -14 -9 -13 -13 1 -4 -4 -32 -11 -61 -7 -29 -10 -59 -7 -68
4 -10 2 -13 -6 -8 -7 5 -9 2 -5 -9 3 -9 1 -18 -6 -21 -7 -2 -3 -5 8 -5 16 -1
17 -3 6 -10 -8 -5 -16 -20 -18 -33 -2 -17 -1 -19 6 -8 5 8 7 18 4 24 -3 5 -1
6 5 2 8 -5 9 -13 2 -25 -5 -10 -6 -22 -2 -26 4 -5 1 -5 -7 0 -11 6 -13 3 -9
-13 4 -12 2 -20 -2 -17 -17 11 -34 -84 -17 -96 4 -3 10 -19 13 -35 3 -21 2
-25 -5 -14 -5 8 -8 17 -5 21 2 4 0 10 -5 14 -10 6 -8 -17 5 -49 5 -13 4 -17
-4 -12 -8 5 -10 2 -6 -9 6 -14 8 -14 19 1 9 14 14 14 20 4 5 -9 4 -11 -4 -6
-8 5 -11 -2 -9 -23 1 -17 7 -31 13 -31 5 0 3 -5 -5 -10 -12 -8 -12 -10 -1 -10
8 0 11 -7 8 -20 -3 -11 -1 -20 4 -20 4 0 5 -7 2 -17 -4 -11 -3 -14 5 -9 11 7
17 -6 13 -28 -1 -4 4 -15 11 -24 11 -13 11 -14 -2 -7 -12 7 -13 6 -3 -7 7 -8
9 -19 5 -24 -4 -4 2 -2 12 6 13 10 17 10 12 3 -4 -7 -3 -13 2 -13 5 0 8 -11 7
-24 -3 -19 1 -23 13 -18 15 5 15 3 4 -10 -10 -13 -10 -18 -1 -24 8 -5 9 -3 4
6 -5 9 -4 11 3 6 7 -4 12 -16 12 -26 0 -10 7 -23 17 -28 10 -6 14 -16 10 -26
-4 -10 -3 -15 3 -11 6 3 10 1 10 -5 0 -16 26 -40 34 -32 4 3 4 -1 0 -11 -4
-12 -1 -17 12 -18 11 0 14 -3 7 -6 -8 -3 1 -18 26 -42 31 -30 37 -41 28 -50
-7 -7 -7 -12 -2 -11 21 4 35 0 35 -11 0 -7 8 -18 18 -26 10 -8 11 -11 2 -7
-13 7 -13 5 -1 -9 15 -19 36 -23 25 -5 -4 7 -3 8 4 4 6 -4 9 -13 5 -21 -3 -8
0 -15 7 -15 6 0 8 -4 5 -10 -3 -5 1 -10 9 -10 8 0 18 -9 21 -20 4 -11 11 -18
16 -15 5 4 9 -4 9 -15 0 -15 5 -20 14 -17 10 4 13 0 11 -14 -4 -17 -2 -19 11
-8 12 10 13 9 8 -4 -6 -16 28 -42 40 -29 4 3 4 -1 1 -11 -7 -17 18 -51 29 -40
3 4 6 -1 6 -11 0 -9 4 -14 10 -11 5 3 10 -4 10 -15 0 -16 4 -20 16 -16 8 3 13
2 10 -3 -3 -5 1 -12 9 -15 9 -3 20 -17 25 -31 5 -14 17 -25 25 -25 9 0 14 -4
11 -8 -8 -13 9 -33 31 -35 11 0 20 -7 20 -14 0 -10 -4 -10 -16 0 -14 11 -14
10 -2 -5 7 -10 23 -18 35 -18 15 0 17 -3 7 -9 -10 -7 -8 -12 10 -24 12 -9 26
-14 31 -11 5 3 8 2 7 -3 -3 -20 3 -34 25 -56 14 -14 22 -28 18 -33 -4 -4 1 -4
11 -1 10 4 16 3 13 -2 -8 -12 32 -61 50 -61 8 0 12 -4 9 -10 -3 -5 -1 -10 5
-10 6 0 8 -4 5 -10 -3 -6 4 -10 16 -10 12 0 20 -3 16 -6 -3 -4 2 -14 11 -23
11 -10 12 -12 2 -6 -13 9 -13 8 -1 -8 7 -9 22 -17 32 -17 10 0 21 -5 25 -12 4
-7 3 -8 -4 -4 -8 5 -10 2 -6 -8 3 -9 9 -15 12 -14 15 3 42 -15 42 -28 0 -8 13
-22 30 -33 16 -10 27 -21 23 -25 -4 -4 1 -4 11 0 14 5 17 4 12 -4 -4 -7 -1
-12 9 -12 9 0 14 -4 11 -9 -3 -5 1 -12 10 -15 10 -4 13 -2 8 7 -5 8 -3 8 7 -1
8 -7 14 -18 14 -25 0 -6 10 -14 23 -17 13 -3 24 -9 25 -15 1 -5 5 -9 9 -8 5 2
8 -2 8 -8 0 -5 4 -7 10 -4 5 3 10 -1 10 -9 0 -14 19 -21 43 -17 5 1 6 -2 4 -6
-3 -5 1 -13 8 -20 11 -10 15 -10 18 0 4 8 6 7 6 -3 1 -21 38 -44 44 -27 3 7 6
4 6 -6 1 -11 15 -24 36 -33 19 -8 35 -18 35 -23 0 -4 12 -13 26 -19 14 -7 23
-16 20 -21 -3 -5 2 -8 11 -7 10 0 18 -6 18 -14 1 -8 6 -14 13 -13 7 2 12 -4
12 -12 0 -8 4 -15 10 -15 14 0 59 -48 51 -56 -3 -4 4 -4 17 -1 12 3 20 1 17
-3 -9 -14 6 -38 27 -43 14 -4 19 -11 14 -22 -3 -9 -2 -13 4 -10 6 3 13 -1 16
-10 4 -10 13 -14 28 -10 15 5 17 4 7 -3 -12 -9 -12 -12 1 -26 9 -8 18 -12 22
-9 3 4 6 1 6 -6 0 -15 25 -41 39 -41 5 0 13 -5 17 -12 4 -7 3 -8 -4 -4 -8 5
-10 2 -6 -8 3 -9 10 -13 15 -10 5 3 13 -6 18 -19 6 -14 16 -29 23 -33 10 -6
10 -4 -1 9 -8 10 -9 17 -3 17 6 0 14 -9 17 -20 3 -11 11 -20 16 -20 5 0 9 -8
9 -17 0 -15 2 -16 10 -3 8 12 10 11 10 -7 0 -17 4 -21 17 -16 11 4 14 3 9 -5
-4 -7 -1 -12 7 -12 8 0 18 -7 21 -16 4 -10 13 -13 28 -9 14 4 18 3 11 -2 -8
-6 -9 -14 -3 -23 9 -13 10 -13 10 0 1 9 5 6 10 -7 6 -13 18 -23 30 -23 15 0
20 -7 20 -26 0 -14 4 -23 9 -20 5 4 8 -2 6 -11 -2 -10 -4 -18 -5 -18 -1 0 -3
-8 -5 -17 -2 -10 2 -18 8 -18 7 0 6 -5 -3 -10 -13 -9 -13 -11 0 -20 12 -7 12
-10 1 -10 -7 0 -11 -6 -7 -15 3 -8 0 -15 -7 -15 -7 0 -3 -8 8 -17 18 -14 18
-15 1 -9 -15 5 -17 2 -13 -14 3 -11 1 -18 -4 -14 -9 5 -13 -9 -10 -33 1 -7 -3
-13 -9 -13 -5 0 -9 -3 -9 -7 3 -21 -2 -33 -12 -27 -8 5 -10 -3 -7 -25 2 -17 2
-29 0 -26 -10 10 -43 -17 -38 -31 3 -9 1 -12 -4 -9 -6 3 -10 -1 -10 -10 0 -9
-4 -13 -10 -10 -5 3 -10 1 -10 -4 0 -6 -6 -11 -14 -11 -8 0 -18 -5 -22 -12 -4
-6 -3 -8 4 -4 6 3 14 2 17 -4 4 -6 3 -10 -2 -9 -22 4 -32 -3 -27 -18 5 -14 4
-15 -4 -4 -9 12 -13 12 -27 -2 -9 -10 -21 -17 -26 -17 -6 0 -8 -3 -6 -7 3 -5
-5 -17 -16 -28 -12 -12 -17 -14 -13 -5 4 8 0 6 -8 -5 -32 -42 -47 -59 -40 -45
4 8 -4 4 -17 -10 -28 -28 -29 -39 -2 -20 10 7 4 -1 -13 -16 -17 -16 -30 -37
-29 -46 2 -10 -1 -16 -6 -15 -5 1 -19 -14 -31 -32 -14 -22 -17 -32 -8 -26 8 4
6 -1 -5 -12 -11 -11 -24 -18 -30 -15 -5 3 -4 -2 3 -11 12 -14 11 -16 -8 -12
-13 2 -20 2 -16 -2 3 -3 -9 -17 -26 -30 -18 -12 -28 -23 -22 -23 5 0 1 -5 -9
-11 -10 -6 -14 -15 -10 -22 4 -7 -1 -6 -11 2 -9 8 -16 10 -15 5 1 -5 1 -18 0
-29 -1 -15 -3 -17 -10 -7 -6 10 -11 5 -19 -18 -8 -20 -16 -29 -23 -24 -8 5
-10 1 -7 -14 4 -14 2 -19 -7 -16 -7 3 -16 0 -21 -7 -5 -8 -3 -10 7 -5 13 7 8
3 -53 -45 -16 -12 -25 -26 -21 -32 3 -6 1 -7 -6 -3 -6 4 -9 12 -6 17 4 5 2 9
-3 9 -6 0 -13 -7 -16 -16 -3 -9 -11 -12 -18 -8 -9 5 -8 2 1 -10 8 -9 10 -16 5
-15 -22 4 -35 -2 -28 -13 5 -8 2 -9 -11 -4 -16 6 -16 4 -4 -11 9 -11 10 -14 2
-9 -7 4 -13 2 -13 -4 0 -6 -7 -13 -15 -17 -18 -6 -98 -83 -88 -83 4 0 -2 -7
-13 -16 -10 -8 -13 -12 -5 -8 9 5 12 3 7 -5 -4 -6 -11 -9 -16 -6 -5 3 -34 -19
-65 -50 -31 -30 -61 -55 -67 -55 -7 0 -7 -5 1 -14 9 -11 6 -12 -14 -8 -15 2
-25 0 -25 -7 0 -7 5 -9 12 -5 9 5 8 2 -1 -10 -8 -9 -20 -15 -28 -12 -9 4 -13
0 -11 -11 2 -10 -3 -18 -10 -18 -15 0 -33 -25 -26 -36 2 -4 -1 -11 -7 -15 -7
-4 -9 -3 -5 4 3 6 2 13 -3 16 -10 7 -9 -6 3 -41 4 -13 14 -23 22 -23 8 0 14
-9 14 -20 0 -14 7 -20 23 -20 18 0 19 -2 7 -10 -13 -9 -13 -10 0 -11 8 -1 19
-1 23 0 5 1 6 -3 2 -9 -3 -5 2 -10 12 -11 10 0 13 -3 6 -6 -10 -3 -10 -8 1
-19 8 -8 18 -14 23 -14 4 0 17 -8 28 -17 17 -13 17 -15 2 -9 -11 3 -16 2 -12
-4 3 -6 13 -10 21 -10 8 0 12 -5 9 -10 -3 -5 2 -10 12 -10 15 0 16 -2 3 -10
-13 -9 -13 -10 0 -11 8 -1 18 -1 21 -1 4 1 6 -6 5 -16 0 -10 6 -17 15 -16 9 1
16 -5 16 -12 0 -7 -5 -10 -10 -7 -6 4 -7 1 -3 -6 5 -7 14 -10 22 -7 17 7 18
-6 2 -22 -9 -9 -7 -12 10 -12 13 0 22 -6 22 -15 0 -8 5 -15 11 -15 5 0 7 -4 4
-10 -3 -5 1 -10 9 -10 9 0 16 -7 16 -15 0 -8 4 -15 9 -15 5 0 13 -9 16 -20 4
-11 10 -18 15 -15 5 3 11 1 15 -5 4 -6 11 -7 17 -4 7 4 8 2 4 -5 -4 -6 -13 -8
-19 -4 -7 4 -6 0 2 -10 7 -9 17 -15 21 -12 4 3 11 -6 14 -20 4 -14 12 -24 18
-22 7 1 17 -8 23 -21 5 -12 15 -20 22 -18 7 3 10 -1 7 -8 -3 -7 3 -19 13 -27
16 -13 17 -12 5 3 -9 11 -10 18 -2 23 6 4 9 3 8 -2 -4 -15 22 -53 37 -53 8 0
15 -8 15 -17 0 -15 2 -16 10 -3 6 9 10 11 10 3 0 -7 7 -10 17 -6 12 5 14 3 8
-8 -7 -11 -6 -12 6 -2 9 7 25 11 37 8 14 -2 19 1 16 10 -4 9 2 13 20 11 14 -2
23 1 20 5 -3 5 6 14 20 20 14 7 23 16 20 20 -3 5 2 9 10 9 9 0 16 5 16 11 0 5
6 7 13 3 8 -5 7 -2 -2 9 -8 10 -11 20 -7 24 3 3 6 0 6 -7 0 -11 3 -11 12 -2 7
7 25 12 41 12 20 0 26 4 21 12 -6 10 -5 10 7 1 12 -10 18 -10 29 0 10 10 11 9
5 -2 -6 -10 -4 -13 7 -8 9 3 21 0 27 -6 8 -8 11 -8 11 2 0 10 7 9 27 -4 18
-12 28 -14 31 -7 2 8 9 7 19 -3 14 -14 17 -14 29 2 10 13 14 14 12 3 -3 -16
21 -21 39 -7 9 6 15 4 19 -6 6 -16 20 -17 43 -3 11 7 13 5 9 -5 -4 -10 2 -15
18 -17 13 -1 24 4 25 11 0 6 4 3 9 -8 6 -13 9 -15 9 -5 1 12 3 12 10 1 7 -10
13 -11 31 -1 12 7 20 8 16 2 -3 -5 8 -12 24 -14 17 -3 30 0 30 6 0 6 4 6 11
-1 7 -7 21 -8 41 -2 27 7 29 7 17 -9 -7 -9 -10 -14 -5 -10 4 4 19 3 33 -3 13
-5 22 -5 19 -1 -3 5 1 9 8 9 15 0 17 -27 2 -27 -6 0 -3 -5 6 -11 23 -13 23
-39 1 -39 -10 0 -14 -3 -8 -8 12 -8 14 -82 3 -82 -4 0 -8 -5 -8 -11 0 -5 3 -8
8 -5 4 2 7 -13 7 -34 0 -28 -3 -36 -11 -29 -9 7 -10 1 -4 -26 5 -22 4 -37 -3
-42 -6 -4 -7 -1 -2 7 5 8 4 11 -3 6 -6 -4 -9 -13 -6 -21 4 -8 11 -12 17 -8 6
3 3 -4 -6 -17 -11 -15 -13 -29 -7 -40 5 -9 5 -22 -1 -31 -11 -18 -12 -32 -1
-25 10 6 9 -30 -1 -40 -3 -4 -2 -16 4 -27 8 -14 8 -18 0 -13 -6 4 -11 0 -11
-8 0 -9 5 -16 10 -16 7 0 7 -6 0 -20 -8 -15 -8 -20 2 -20 9 0 9 -3 -2 -10 -8
-5 -10 -10 -3 -10 13 0 12 -18 -1 -39 -6 -10 -5 -12 2 -7 8 5 12 -1 12 -14 0
-14 4 -19 12 -14 10 5 10 4 1 -6 -10 -11 -9 -18 5 -34 9 -11 11 -16 5 -12 -7
4 -13 2 -13 -3 0 -6 4 -11 10 -11 5 0 7 -7 4 -15 -4 -9 4 -24 17 -36 13 -11
18 -17 11 -14 -11 6 -12 3 -3 -14 7 -11 16 -21 22 -21 6 0 7 -5 3 -12 -5 -8
-2 -9 11 -4 15 5 16 4 6 -8 -10 -11 -8 -18 10 -35 13 -11 20 -24 16 -27 -3 -3
0 -12 6 -19 9 -10 15 -10 26 -1 12 9 12 8 2 -11 -12 -23 -6 -29 23 -24 5 1 3
-6 -5 -15 -9 -12 -9 -15 -1 -10 7 4 12 2 12 -4 0 -6 4 -8 10 -5 6 3 7 -1 4 -9
-4 -11 0 -16 10 -16 9 0 15 -3 15 -7 -3 -21 3 -33 17 -33 8 0 12 -4 9 -10 -3
-5 3 -15 15 -22 11 -7 20 -20 20 -28 0 -13 1 -13 10 0 8 12 10 11 10 -7 0 -20
10 -28 32 -24 4 0 5 -8 3 -19 -4 -20 15 -20 2885 -20 2590 0 2889 2 2894 16 3
8 2 12 -4 9 -6 -3 -10 -1 -10 5 0 6 -5 8 -12 4 -10 -6 -10 -4 0 8 9 11 10 18
2 23 -6 3 -7 11 -4 17 4 7 2 8 -4 4 -6 -4 -18 8 -28 29 -9 19 -21 32 -27 28
-6 -4 -8 0 -4 10 4 12 1 17 -10 17 -13 0 -14 2 -2 17 8 9 9 14 3 10 -7 -4 -17
5 -24 23 -9 23 -16 28 -25 20 -10 -8 -12 -3 -9 20 2 19 0 29 -6 25 -6 -3 -10
-1 -10 5 0 6 -5 8 -11 4 -8 -5 -10 1 -7 19 3 17 1 24 -7 21 -9 -4 -11 3 -8 21
4 20 2 24 -10 19 -12 -4 -15 -1 -12 15 2 12 -1 21 -8 21 -7 0 -18 9 -25 20 -7
12 -17 18 -22 15 -5 -3 -12 0 -15 5 -5 8 -14 5 -28 -7 -11 -10 -17 -12 -13 -6
4 7 2 13 -3 13 -6 0 -11 8 -12 18 0 14 -2 14 -9 -3 -8 -19 -9 -19 -9 3 -1 12
-6 22 -12 22 -5 0 -7 -5 -3 -12 4 -7 3 -8 -4 -4 -6 4 -8 14 -5 23 5 12 3 14
-8 8 -11 -7 -11 -5 1 10 8 10 10 16 3 12 -7 -4 -15 5 -22 23 -5 17 -15 30 -22
30 -6 0 -9 6 -6 14 3 8 -1 17 -9 20 -9 3 -12 10 -9 16 3 6 -1 13 -9 16 -9 3
-14 10 -11 14 3 5 -2 15 -11 24 -8 9 -12 20 -9 26 3 6 -1 13 -9 16 -9 3 -16
15 -16 25 0 10 -4 19 -10 19 -5 0 -10 7 -10 16 0 9 -11 25 -25 36 -20 16 -23
23 -14 34 9 11 8 14 -7 14 -16 0 -17 2 -4 10 12 7 12 10 1 10 -8 0 -11 6 -7
16 3 8 2 12 -3 9 -5 -3 -12 -1 -16 5 -3 5 -1 10 4 10 6 0 2 9 -9 20 -18 18
-25 39 -21 63 1 5 -3 6 -9 2 -5 -3 -10 -1 -10 5 0 6 -5 8 -11 4 -7 -4 -7 1 1
16 8 15 8 20 1 16 -6 -4 -11 0 -11 9 0 9 -5 13 -11 9 -8 -4 -9 0 -4 15 5 17 3
20 -11 14 -12 -4 -15 -3 -10 6 4 6 2 19 -6 28 -11 14 -11 16 1 8 10 -6 12 -4
7 4 -5 7 -14 10 -22 7 -12 -4 -12 -2 -4 14 9 17 8 19 -7 13 -16 -6 -17 -5 -3
12 14 17 13 18 -3 12 -11 -4 -16 -3 -12 3 3 6 0 10 -7 10 -10 0 -10 2 1 9 11
7 9 10 -8 16 -11 3 -21 10 -21 15 0 5 8 7 18 3 15 -5 14 -4 -2 9 -10 8 -16 20
-12 26 4 7 -1 9 -15 7 -17 -4 -19 -2 -9 10 10 12 9 15 -5 15 -14 0 -16 6 -13
30 3 21 1 29 -7 26 -17 -6 -13 41 5 56 11 11 11 9 0 -7 -14 -19 -14 -19 3 -6
11 9 14 17 8 25 -6 7 -6 17 -1 26 9 13 10 13 11 0 0 -8 5 -2 11 14 8 21 7 30
-2 36 -8 5 -4 9 11 13 16 4 20 10 13 19 -12 16 -12 58 0 77 6 9 5 12 0 8 -6
-3 -16 3 -23 15 -7 11 -8 17 -2 13 6 -3 11 -1 11 4 0 6 -5 11 -11 11 -5 0 -7
5 -3 12 5 8 2 9 -11 4 -14 -5 -15 -3 -7 6 14 17 11 29 -13 53 -11 11 -16 17
-11 12 20 -14 29 -7 13 11 -20 21 -22 32 -6 32 5 0 7 -6 3 -12 -5 -9 -2 -9 9
1 9 7 17 23 18 35 0 14 2 16 6 6 9 -24 37 -47 52 -42 8 3 11 0 7 -6 -3 -6 4
-21 16 -34 15 -16 18 -17 8 -3 -15 20 -15 20 8 1 12 -11 21 -25 18 -32 -7 -18
5 -25 21 -12 11 9 12 7 7 -7 -6 -14 -4 -16 7 -10 11 7 12 6 2 -6 -11 -13 -8
-20 13 -38 13 -12 22 -26 19 -31 -3 -6 -2 -10 2 -10 5 0 18 -7 29 -16 10 -8
13 -13 7 -9 -9 4 -11 1 -7 -9 3 -9 10 -13 15 -10 5 3 9 -5 9 -16 0 -15 5 -20
14 -17 10 4 12 -1 9 -16 -4 -18 -3 -19 6 -7 9 12 11 10 11 -13 0 -16 4 -26 10
-22 6 3 10 -3 10 -15 0 -12 5 -18 10 -15 6 3 10 -3 10 -15 0 -12 4 -19 8 -16
5 3 14 -6 20 -19 7 -14 17 -36 24 -50 6 -13 15 -22 20 -19 4 3 8 -4 8 -15 0
-12 5 -21 10 -21 6 0 10 -7 10 -15 0 -8 3 -15 8 -15 4 0 13 -14 20 -30 8 -17
18 -28 23 -24 5 3 9 -4 9 -16 0 -12 5 -18 10 -15 9 5 11 -1 9 -21 0 -3 15 -19
33 -36 18 -16 27 -27 19 -22 -9 5 -12 3 -7 -4 4 -7 15 -12 24 -12 15 0 15 -2
2 -10 -12 -8 -10 -10 9 -10 19 0 21 -3 11 -14 -9 -12 -7 -17 9 -28 12 -7 21
-20 21 -28 0 -13 1 -13 10 0 8 12 10 11 10 -7 0 -13 5 -23 11 -23 8 0 8 -4 -1
-15 -10 -12 -8 -14 9 -10 19 3 20 2 9 -18 -11 -21 -10 -21 7 -7 11 9 16 10 11
3 -4 -8 -2 -13 6 -13 9 0 9 -3 -2 -10 -10 -6 -11 -10 -2 -10 6 0 12 -7 12 -15
0 -8 5 -15 10 -15 6 0 10 -6 10 -14 0 -8 6 -17 13 -19 9 -4 8 -6 -2 -6 -10 -1
-7 -7 8 -20 12 -10 21 -23 20 -27 -3 -21 2 -35 11 -29 6 3 10 -3 10 -14 0 -12
5 -21 10 -21 6 0 10 -6 10 -13 0 -18 24 -67 33 -67 4 0 7 -9 7 -20 0 -11 5
-20 11 -20 6 0 8 -7 5 -16 -3 -8 -2 -13 3 -10 5 3 12 -1 15 -10 4 -10 2 -13
-7 -9 -6 4 -4 0 7 -9 11 -9 16 -22 12 -31 -3 -9 -2 -14 3 -11 11 7 35 -49 27
-63 -4 -6 1 -8 12 -6 16 3 19 -2 16 -26 -3 -21 0 -28 8 -23 8 5 9 2 4 -11 -6
-16 -4 -16 10 -4 16 13 16 12 5 -8 -9 -17 -9 -23 0 -23 6 0 9 -9 6 -20 -3 -11
-2 -20 2 -20 4 0 6 -22 6 -49 -1 -39 2 -48 12 -40 9 8 10 4 4 -19 -5 -16 -5
-35 -1 -43 5 -7 6 -17 3 -22 -3 -5 1 -13 8 -18 12 -7 11 -9 -1 -9 -13 0 -13
-1 0 -10 11 -7 11 -10 2 -10 -8 0 -6 -8 7 -22 16 -16 18 -25 10 -35 -9 -10
111 -13 691 -13 l702 0 -4 25 c-3 14 1 30 9 37 8 6 11 18 8 26 -4 12 -3 13 10
2 18 -15 20 1 3 19 -11 10 -10 11 5 6 9 -4 17 -12 17 -19 0 -6 5 -3 11 7 6 9
15 15 20 12 5 -4 6 -11 3 -17 -4 -7 -2 -8 5 -4 9 6 9 11 -1 24 -11 14 -10 15
6 9 16 -6 17 -5 6 8 -8 10 -9 15 -2 15 8 0 11 107 11 359 0 322 -2 358 -16
357 -9 0 -18 6 -20 14 -4 13 -3 13 6 0 16 -23 13 -5 -6 35 -9 19 -21 35 -26
35 -5 0 -7 9 -4 21 4 15 2 19 -8 15 -10 -3 -12 0 -8 11 4 11 2 14 -5 9 -8 -5
-10 -1 -5 10 4 11 -1 22 -12 30 -14 11 -15 14 -4 15 8 0 6 4 -6 9 -11 5 -14 9
-7 9 10 1 9 5 -3 17 -9 9 -14 21 -12 28 2 6 -5 16 -17 23 -12 7 -15 12 -7 13
9 0 7 5 -6 18 -10 9 -13 13 -6 8 10 -6 12 -4 7 8 -3 9 -10 16 -16 16 -5 0 -7
4 -3 9 3 5 1 12 -5 16 -6 4 -8 10 -5 15 3 5 0 12 -6 16 -8 5 -9 3 -4 -6 5 -8
4 -11 -3 -7 -5 4 -8 17 -4 29 3 13 1 19 -5 15 -7 -5 -9 0 -6 13 4 15 0 20 -13
20 -13 0 -15 3 -7 8 10 6 8 17 -7 45 -11 20 -20 39 -20 42 0 3 0 10 0 15 0 6
-7 10 -15 10 -9 0 -12 6 -8 17 5 12 3 14 -8 8 -12 -8 -12 -6 0 8 10 13 10 17
1 17 -7 0 -10 7 -6 15 3 8 0 14 -7 12 -6 -1 -13 8 -15 20 -2 13 -8 23 -14 23
-6 0 -5 7 3 17 10 11 10 14 2 9 -8 -4 -13 -2 -13 4 0 6 -5 8 -13 4 -7 -5 -6 0
3 11 8 10 10 16 4 12 -7 -4 -15 0 -18 9 -3 8 -2 13 2 10 5 -3 9 1 9 9 0 7 -8
12 -17 10 -13 -3 -16 2 -12 21 2 14 0 24 -7 24 -7 0 -10 4 -7 9 3 4 -1 17 -9
27 -8 10 -15 27 -15 37 0 9 -4 17 -10 17 -5 0 -10 7 -10 16 0 9 -5 12 -12 8
-8 -5 -7 0 2 11 9 11 10 16 3 11 -9 -5 -13 0 -13 15 0 12 -3 19 -7 16 -4 -4
-13 12 -21 35 -8 23 -22 49 -31 56 -12 10 -12 12 -1 7 12 -5 12 -4 -1 7 -9 7
-15 21 -13 30 1 10 -5 22 -14 28 -14 8 -14 9 -2 10 12 0 12 3 -2 11 -11 6 -15
16 -11 26 5 12 3 14 -7 8 -10 -6 -12 -2 -8 18 4 20 1 25 -12 22 -13 -2 -15 3
-12 27 3 23 1 29 -8 23 -9 -6 -9 -3 -1 13 9 17 7 23 -10 35 -15 11 -17 16 -7
20 10 4 10 6 1 6 -7 1 -13 8 -13 17 0 9 -5 12 -12 8 -7 -5 -8 -3 -2 7 12 19
14 39 4 39 -5 0 -11 -6 -14 -12 -3 -7 -3 -3 0 10 3 14 1 22 -8 22 -10 0 -9 3
2 10 12 8 12 10 -5 10 -17 0 -17 2 -5 10 9 6 10 10 3 10 -6 0 -15 9 -18 20 -4
11 -11 18 -16 15 -5 -4 -9 -2 -9 4 0 5 6 12 13 14 6 3 2 6 -11 6 -13 1 -20 5
-17 11 3 6 1 10 -5 10 -7 0 -9 7 -6 16 4 10 2 13 -6 8 -8 -5 -9 -2 -5 10 4 10
1 19 -8 22 -8 4 -12 10 -9 15 3 5 2 9 -3 8 -24 -4 -35 2 -29 18 4 10 4 14 0
10 -10 -10 -45 34 -37 47 4 6 -4 2 -18 -9 -17 -14 -20 -15 -10 -3 11 14 10 21
-2 38 -7 11 -17 17 -20 13 -4 -3 -7 -1 -7 6 0 17 -26 41 -44 41 -9 0 -16 5
-16 11 0 5 4 7 10 4 6 -3 7 1 4 9 -3 9 -10 14 -14 11 -5 -3 -11 -1 -15 5 -4 6
-11 7 -17 4 -7 -4 -8 -2 -4 5 4 6 12 8 18 5 7 -5 8 -2 4 5 -5 7 -15 10 -25 6
-12 -5 -13 -4 -4 6 9 9 8 17 -7 37 -11 13 -18 27 -15 31 2 4 -9 6 -26 5 -16
-1 -26 2 -23 7 3 5 10 7 15 4 5 -4 10 1 10 9 1 9 2 22 3 29 1 6 -3 16 -9 20
-6 5 -2 7 10 4 19 -4 20 -1 11 39 -8 33 -14 41 -29 38 -16 -3 -17 -1 -5 13 11
14 10 16 -8 11 -12 -3 -21 -1 -21 6 1 36 -4 48 -17 43 -10 -4 -13 0 -11 14 3
15 0 19 -10 15 -8 -3 -17 0 -21 6 -4 7 -3 8 4 4 7 -4 12 -2 12 3 0 6 -5 11
-11 11 -5 0 -7 4 -4 10 3 6 -1 7 -9 4 -9 -4 -16 -1 -16 6 0 7 -7 10 -16 6 -8
-3 -13 -2 -10 2 2 4 -2 18 -11 32 -10 18 -13 20 -9 5 6 -19 5 -19 -7 -3 -8 10
-18 14 -22 10 -5 -4 -5 -2 -2 4 4 7 -2 23 -14 35 -11 13 -18 18 -14 11 11 -21
-4 -13 -16 9 -8 15 -8 19 0 15 6 -4 11 -3 11 2 0 6 -7 13 -16 16 -9 3 -14 12
-11 19 2 6 -5 18 -17 25 -12 7 -14 11 -5 9 9 -3 16 1 16 8 0 7 -6 11 -14 8 -9
-4 -11 0 -6 13 5 13 3 15 -8 9 -11 -7 -11 -5 1 10 9 11 10 16 3 11 -8 -4 -13
-1 -13 9 0 10 -5 13 -12 9 -9 -5 -9 -2 1 9 9 12 10 17 2 17 -7 0 -11 6 -10 13
1 6 1 20 0 31 -1 16 -3 17 -18 5 -15 -13 -15 -12 -5 8 9 17 9 22 -4 27 -12 5
-13 10 -3 27 8 15 8 19 0 15 -7 -4 -11 1 -11 13 0 12 -6 21 -12 21 -9 0 -8 4
2 10 8 5 10 10 4 10 -6 0 -11 7 -12 15 -1 8 -3 22 -4 30 -1 8 -6 15 -12 15 -6
0 -4 5 4 10 13 9 13 10 0 11 -8 1 -19 1 -23 0 -5 -1 -6 3 -2 9 3 6 11 8 16 5
5 -3 6 1 3 9 -3 9 -11 13 -18 9 -6 -4 -5 1 3 10 8 10 9 17 3 17 -6 0 -9 9 -7
20 2 11 0 20 -5 20 -5 0 -6 7 -3 17 4 10 2 14 -4 10 -6 -4 -14 0 -17 9 -3 8
-2 12 4 9 6 -3 10 -1 10 4 0 6 -8 11 -17 11 -15 0 -16 2 -3 10 8 5 10 10 4 10
-7 0 -15 7 -18 16 -3 8 -2 12 4 9 20 -12 9 6 -17 32 -16 15 -22 23 -15 19 7
-4 12 -1 12 9 0 9 -4 13 -10 10 -5 -3 -10 3 -10 15 0 14 -4 19 -12 14 -8 -5
-9 -2 -5 9 3 9 0 23 -8 31 -8 8 -15 19 -15 25 0 6 -6 11 -12 11 -9 0 -8 4 2
10 13 8 12 10 -3 10 -10 0 -15 5 -12 10 3 6 1 10 -5 10 -6 0 -8 5 -4 12 5 7 2
9 -8 6 -11 -5 -15 0 -14 15 1 14 -6 24 -19 27 -11 3 -20 12 -21 20 -2 34 -4
41 -11 37 -5 -3 -15 2 -23 11 -13 14 -12 15 3 9 15 -6 16 -4 7 13 -6 11 -13
20 -16 20 -3 0 -2 -4 1 -10 3 -6 -1 -7 -9 -4 -9 3 -15 9 -14 12 2 19 -3 32
-13 32 -5 0 -7 -5 -3 -12 4 -7 3 -8 -4 -4 -6 4 -9 12 -6 19 2 7 -5 23 -17 36
-17 18 -23 20 -31 9 -7 -10 -9 -10 -7 2 3 31 -1 42 -15 37 -11 -4 -13 -1 -9
10 4 11 2 14 -5 9 -7 -4 -12 -2 -12 4 0 6 -5 8 -12 4 -6 -4 -8 -3 -5 3 7 11
-11 29 -52 51 -12 8 -20 9 -16 3 3 -6 1 -11 -4 -11 -6 0 -11 7 -11 16 0 8 -4
12 -10 9 -5 -3 -10 -1 -10 5 0 6 -11 10 -25 8 -15 -2 -30 4 -40 17 l-17 20 6
-20 c6 -20 6 -20 -9 -1 -8 11 -15 14 -15 8 0 -7 -5 -12 -11 -12 -5 0 -8 4 -5
9 3 5 -1 11 -8 14 -8 3 -17 1 -19 -6 -3 -9 -7 -9 -18 -1 -21 17 -63 29 -55 15
5 -7 1 -9 -8 -5 -9 3 -16 10 -16 15 0 5 -5 9 -11 9 -5 0 -7 -6 -3 -12 5 -8 0
-7 -11 2 -10 8 -16 10 -12 4 3 -6 0 -11 -8 -11 -8 0 -12 4 -9 9 3 5 -8 7 -25
6 -17 -1 -31 -7 -31 -13 0 -5 -4 -4 -9 4 -6 9 -11 10 -15 2 -4 -6 -13 -11 -19
-11 -7 0 -6 4 3 10 13 8 13 10 -2 10 -9 0 -19 -6 -21 -12 -4 -10 -6 -9 -6 1
-1 11 -4 11 -16 1 -11 -9 -15 -9 -15 -1 0 9 -5 9 -21 0 -15 -8 -19 -8 -15 0 4
6 2 11 -5 11 -7 0 -9 3 -6 7 4 3 -1 12 -11 20 -9 8 -11 11 -4 8 12 -6 12 -3 1
16 -18 34 -70 79 -54 47 4 -7 0 -5 -8 4 -11 14 -16 15 -27 5 -8 -8 -11 -8 -7
-1 9 16 -44 25 -61 12 -9 -8 -11 -7 -6 6 7 18 -15 19 -28 1 -5 -6 -12 -5 -20
4 -11 12 -10 13 2 6 11 -6 10 -3 -3 12 -11 12 -27 19 -42 17 -14 -1 -28 3 -32
8 -4 7 -1 8 8 3 12 -8 12 -6 0 8 -7 9 -19 17 -25 17 -6 0 -4 -5 4 -10 8 -5 10
-10 4 -10 -5 0 -19 8 -30 19 -35 32 -58 40 -78 29 -14 -8 -17 -8 -11 2 6 9 3
9 -12 1 -11 -6 -23 -7 -27 -4 -3 3 -6 1 -6 -5 0 -6 -7 -9 -17 -5 -12 5 -14 3
-8 -8 7 -11 5 -11 -10 1 -17 14 -18 13 -12 -2 8 -23 5 -22 -23 2 -12 11 -27
17 -31 14 -5 -3 -9 0 -9 5 0 6 -9 11 -19 11 -11 0 -23 4 -26 10 -4 6 1 7 12 3
10 -3 15 -3 12 1 -4 4 -17 9 -29 11 -13 3 -28 9 -33 14 -7 7 -15 4 -24 -7 -8
-9 -11 -11 -7 -3 5 10 1 11 -16 6 -17 -6 -21 -4 -14 6 7 12 5 12 -9 1 -9 -8
-22 -10 -29 -6 -10 6 -11 5 -1 -7 10 -13 10 -16 -2 -16 -8 0 -15 5 -15 10 0 5
-7 7 -15 4 -8 -4 -17 -2 -20 4 -4 5 -11 6 -17 3 -7 -4 -8 -2 -4 5 4 6 13 8 19
5 7 -4 3 2 -8 13 -11 11 -23 19 -27 16 -5 -2 -8 1 -8 7 0 6 -4 8 -10 5 -5 -3
-10 1 -10 9 0 9 -3 16 -7 17 -43 4 -72 10 -91 21 -19 10 -25 10 -32 -2 -8 -13
-10 -12 -10 2 0 12 -7 15 -26 13 -14 -1 -28 3 -31 11 -2 7 -12 10 -21 7 -11
-5 -14 -2 -9 10 4 11 2 14 -7 11 -7 -3 -19 3 -27 13 -13 16 -12 17 3 5 14 -11
16 -11 11 7 -3 13 -10 18 -21 14 -11 -5 -11 -1 4 13 12 13 22 16 26 10 4 -6 8
1 8 17 0 17 5 27 15 27 13 0 19 12 16 32 0 4 7 4 17 1 9 -3 14 -3 10 2 -4 4 0
14 10 22 9 8 11 11 3 7 -9 -4 -12 -2 -9 7 3 8 10 13 15 12 5 -1 10 4 10 12 0
8 -4 12 -8 9 -5 -2 -8 6 -7 18 2 41 -2 49 -14 42 -10 -6 -10 -5 -1 8 7 8 9 19
5 23 -4 5 -1 4 7 0 11 -6 13 -4 8 7 -6 16 25 53 35 42 4 -3 9 4 13 15 3 12 11
21 16 21 5 0 9 5 9 11 0 5 -6 7 -12 3 -8 -4 -10 -3 -5 2 5 5 13 10 18 10 5 1
14 2 19 3 6 0 10 6 10 12 0 5 -6 7 -12 4 -7 -4 -5 0 6 9 10 8 15 19 12 24 -3
6 0 12 8 15 9 4 13 18 11 41 -1 21 3 36 9 36 6 0 4 5 -4 10 -8 5 -10 10 -5 10
6 0 10 20 9 45 -1 25 3 48 8 52 6 3 4 9 -3 14 -10 6 -10 9 -2 9 7 0 17 10 24
21 9 17 8 20 -3 13 -10 -6 -11 -5 -1 8 7 8 9 19 5 23 -4 5 -2 5 5 1 13 -7 37
27 26 38 -3 3 0 6 7 6 7 0 10 3 7 7 -4 3 2 13 13 20 11 8 18 19 14 24 -3 5 0
16 6 24 10 12 10 15 -1 16 -8 0 -5 4 6 9 17 7 17 9 3 9 -10 1 -18 5 -18 11 0
5 7 6 17 3 11 -4 14 -3 9 5 -4 7 -2 12 6 12 9 0 9 3 -2 10 -13 9 -13 12 2 23
12 9 14 17 6 30 -7 13 -6 17 3 15 7 -2 13 4 14 12 1 18 -19 40 -35 40 -6 0 -8
5 -4 12 5 8 0 9 -14 6 -12 -4 -20 -2 -17 2 3 5 1 11 -5 15 -6 4 -7 13 -1 23 4
9 7 25 6 35 -2 9 1 17 6 17 5 0 9 7 9 15 0 7 8 19 18 24 9 6 13 11 8 11 -5 0
-1 9 9 20 18 20 18 21 -1 14 -15 -5 -15 -2 5 14 18 15 21 21 10 25 -11 4 -10
6 3 6 12 1 15 7 11 24 -3 12 -2 19 2 15 4 -4 14 0 21 10 9 11 13 13 14 4 0 -7
5 -10 10 -7 6 4 7 12 3 18 -4 7 2 5 12 -3 17 -14 18 -13 12 4 -6 16 -5 17 8 6
10 -8 15 -9 15 -1 0 6 9 11 21 11 15 0 19 5 15 15 -3 8 -2 14 2 14 20 -3 33 2
27 11 -3 6 0 10 7 10 7 0 24 10 38 21 l25 21 -30 -18 c-24 -14 -27 -14 -17 -2
7 9 26 21 42 28 17 7 27 17 23 23 -4 6 0 8 11 4 10 -4 15 -3 11 3 -3 6 -1 10
5 10 6 0 8 5 5 10 -3 6 0 10 8 10 18 0 60 58 51 72 -5 8 -2 9 9 5 9 -3 16 -3
16 1 -3 20 2 32 12 27 6 -4 9 0 7 11 -2 11 2 18 9 17 7 -2 10 3 7 11 -3 8 0
17 5 21 6 3 9 11 6 16 -4 5 2 6 12 2 10 -3 15 -2 10 2 -4 5 0 19 8 31 11 17
12 24 2 27 -7 3 -5 6 5 6 10 1 17 7 15 14 -1 6 4 11 11 9 10 -2 10 2 1 20 -6
13 -8 20 -4 16 5 -4 14 -3 22 3 11 10 11 15 1 27 -10 12 -10 14 -1 9 15 -9 29
35 17 54 -4 8 -3 9 4 5 7 -4 12 -2 12 4 0 6 4 9 9 6 5 -4 8 2 6 11 -1 10 1 26
6 35 6 11 5 18 -4 21 -6 3 -4 6 7 6 15 1 16 4 6 16 -10 12 -9 16 4 21 14 5 14
9 4 22 -10 12 -10 14 0 8 8 -5 12 1 12 19 0 18 4 24 13 19 6 -4 9 -4 5 1 -4 4
-3 14 4 22 8 11 7 12 -5 8 -8 -4 -18 -1 -22 5 -3 6 -3 10 2 9 18 -3 36 1 30 8
-4 3 -2 12 4 19 7 8 7 14 0 19 -7 4 -7 12 -1 25 6 11 14 28 19 38 5 11 8 33 7
50 -1 18 1 32 5 32 4 0 6 10 4 22 -3 12 0 27 6 35 7 8 8 13 1 13 -5 0 -9 11
-8 24 1 19 4 22 14 13 7 -6 12 -6 11 -1 -1 5 0 11 1 14 6 17 3 70 -4 70 -6 0
-5 5 2 12 15 15 16 32 1 22 -8 -4 -8 -1 -1 12 12 23 12 32 0 63 -8 21 -7 22 7
11 13 -11 14 -10 8 6 -3 10 -11 22 -17 26 -7 5 -7 8 2 8 6 0 12 11 12 25 0 14
-5 25 -12 25 -6 0 -3 7 8 15 12 9 14 14 6 15 -7 0 -10 5 -7 10 4 6 1 18 -6 26
-10 12 -9 13 7 8 18 -5 18 -5 1 9 -13 11 -15 16 -5 20 10 3 11 9 1 25 -8 13
-9 23 -3 27 6 3 10 13 10 21 0 10 -5 12 -12 8 -9 -5 -9 -2 1 9 9 12 10 17 2
17 -7 0 -9 5 -5 12 11 17 11 58 1 65 -4 2 -5 14 -2 26 2 12 2 16 -1 10 -9 -19
-20 -16 -20 6 0 11 5 17 11 14 5 -4 1 4 -10 17 -11 13 -15 21 -10 17 6 -3 12
4 12 16 1 12 -1 17 -5 10 -5 -7 -11 -3 -19 13 -6 13 -7 22 -2 18 5 -3 6 2 3
10 -3 9 -10 14 -15 11 -4 -3 -6 4 -4 15 2 13 -1 20 -11 20 -8 0 -14 5 -14 11
0 5 6 7 13 3 8 -6 8 -3 -1 9 -8 9 -11 21 -7 27 3 6 -3 10 -17 10 -16 0 -19 3
-10 9 11 7 11 11 -2 23 -8 9 -12 18 -9 22 4 3 -2 6 -13 6 -16 0 -17 2 -4 10
11 7 11 10 2 10 -7 0 -10 5 -7 10 3 6 -1 10 -9 10 -9 0 -16 5 -16 11 0 5 5 7
11 4 6 -4 5 2 -3 14 -7 12 -17 21 -21 21 -5 0 -7 7 -3 15 3 9 0 15 -9 15 -13
0 -20 19 -16 44 1 5 -6 6 -15 2 -14 -5 -15 -4 -4 9 11 13 10 14 -4 9 -12 -5
-16 0 -16 21 0 15 -4 24 -10 20 -6 -3 -11 -1 -11 4 -4 35 -20 60 -41 67 -16 5
-18 8 -7 15 11 7 11 9 -2 9 -9 0 -23 8 -30 18 -13 15 -12 16 4 3 15 -12 17
-12 11 3 -3 9 -13 16 -21 16 -8 0 -11 4 -8 10 3 5 -5 21 -19 35 -15 14 -26 30
-26 35 0 6 -4 10 -10 10 -5 0 -10 7 -10 15 0 8 -5 15 -11 15 -5 0 -7 5 -3 12
5 8 2 9 -10 5 -14 -5 -17 -3 -12 8 3 9 0 15 -10 15 -8 0 -12 5 -9 10 3 6 -1
10 -9 10 -9 0 -15 3 -15 8 3 19 -2 33 -10 28 -5 -3 -12 6 -15 19 -4 14 -10 23
-15 21 -5 -3 -17 4 -27 17 -19 21 -19 21 1 7 19 -14 19 -14 6 3 -8 10 -20 16
-26 13 -8 -3 -11 4 -9 20 1 13 -1 23 -4 23 -20 -3 -32 2 -27 11 3 6 2 10 -4
10 -5 0 -12 -6 -15 -12 -3 -7 -3 -2 0 11 5 19 3 23 -9 18 -11 -4 -14 -2 -10 9
3 8 -1 14 -10 14 -8 0 -21 8 -28 18 -13 16 -12 16 6 3 12 -9 10 -4 -5 10 -14
14 -33 28 -43 32 -10 4 -16 11 -12 16 3 5 0 13 -6 17 -8 4 -9 3 -5 -4 4 -7 2
-12 -3 -12 -6 0 -11 7 -11 16 0 8 -4 12 -10 9 -5 -3 -10 -1 -10 4 0 6 -7 11
-16 11 -8 0 -13 4 -10 9 7 12 -18 21 -42 16 -16 -3 -19 1 -14 17 4 17 2 20
-11 15 -9 -3 -19 -1 -23 5 -5 7 -2 8 6 3 9 -5 11 -4 6 3 -5 9 -13 9 -26 2 -16
-9 -18 -8 -13 7 5 13 3 15 -11 10 -9 -4 -15 -3 -12 2 6 9 -22 26 -38 22 -5 -1
-18 6 -29 16 -20 18 -20 18 -8 -7 12 -25 12 -25 -6 -4 -18 20 -68 41 -57 23 9
-15 -14 -10 -30 7 -12 12 -16 12 -16 2 0 -10 -3 -9 -10 2 -9 13 -10 13 -10 0
0 -13 -2 -13 -9 -1 -5 8 -16 11 -24 8 -9 -3 -18 -1 -21 6 -3 9 -5 9 -5 0 -1
-7 -8 -10 -17 -6 -9 3 -20 0 -25 -8 -7 -12 -9 -12 -9 0 0 11 -3 11 -17 0 -10
-9 -14 -9 -10 -2 6 9 1 9 -18 -1 -14 -7 -37 -12 -51 -10 -20 2 -24 -1 -19 -14
5 -13 4 -14 -6 -5 -10 10 -15 9 -24 -4 -10 -13 -14 -13 -20 -3 -6 9 -4 11 6 5
8 -5 11 -5 7 0 -5 5 -22 10 -39 12 -21 2 -28 -1 -24 -10 4 -6 0 -4 -8 6 -8 9
-24 17 -36 17 -11 0 -21 5 -21 10 0 6 -7 10 -16 10 -9 0 -30 15 -47 33 -18 18
-26 26 -19 17 6 -9 12 -21 12 -26 0 -5 -5 -1 -11 9 -6 9 -16 14 -22 11 -7 -4
-9 -4 -5 1 9 10 -10 47 -21 40 -5 -2 -15 3 -22 13 -13 15 -12 16 3 4 11 -9 18
-10 23 -2 4 6 3 10 -2 9 -15 -4 -43 13 -37 22 3 5 2 9 -3 8 -14 -3 -73 25 -73
34 0 5 -8 3 -17 -4 -14 -12 -16 -12 -8 0 6 11 4 13 -10 7 -16 -6 -16 -4 -4 11
7 10 9 15 4 10 -4 -4 -19 0 -33 9 -13 9 -21 11 -18 5 4 -6 2 -11 -3 -11 -10 0
-15 14 -12 33 1 5 -3 6 -8 3 -5 -4 -16 0 -24 8 -11 11 -17 12 -26 3 -7 -7 -12
-7 -11 -2 5 22 -1 35 -15 35 -8 0 -15 5 -15 11 0 5 -6 7 -12 3 -9 -5 -9 -2 1
9 7 9 11 18 7 18 -3 1 -9 2 -13 3 -5 1 -17 7 -28 15 l-20 13 20 -6 c19 -6 19
-5 3 7 -10 8 -15 17 -11 21 4 4 0 4 -10 0 -15 -5 -19 0 -16 23 1 10 -30 25
-40 19 -5 -3 -8 2 -7 12 1 11 -5 16 -18 14 -11 -2 -15 1 -11 7 6 10 -8 16 -29
12 -5 -1 -6 6 -2 15 4 12 2 15 -9 10 -8 -3 -15 -1 -15 4 0 6 -3 9 -7 9 -21 -3
-34 2 -28 11 4 6 3 9 -2 8 -4 -1 -18 3 -31 10 -12 7 -27 10 -32 7 -6 -3 -10 2
-11 12 0 10 -3 13 -5 7 -3 -8 -18 -6 -45 8 -23 11 -48 17 -56 13 -14 -5 -14
-3 -2 12 7 10 9 15 5 11 -5 -4 -16 -2 -24 5 -13 10 -15 9 -9 -8 7 -20 7 -20
-8 -1 -8 11 -30 21 -47 22 -18 2 -34 8 -36 14 -3 7 -10 4 -18 -7 -12 -17 -13
-16 -9 5 4 20 2 22 -10 12 -8 -7 -15 -8 -15 -3 0 5 -7 10 -15 10 -8 0 -12 -4
-9 -8 2 -4 0 -11 -6 -14 -6 -4 -10 -3 -9 2 1 4 1 15 0 23 -1 13 -2 13 -11 0
-9 -13 -10 -13 -10 0 0 13 -1 13 -10 0 -6 -10 -10 -11 -10 -2 0 6 -8 12 -18
12 -10 0 -24 6 -31 13 -11 10 -13 10 -7 0 4 -7 2 -13 -3 -13 -6 0 -11 5 -11
12 0 6 -7 3 -15 -8 -10 -12 -14 -14 -13 -5 2 8 -5 17 -16 19 -13 3 -16 0 -10
-9 4 -7 -8 -2 -26 11 -18 13 -30 19 -26 12 9 -16 -26 -16 -41 -1 -9 9 -11 6
-7 -12 l5 -24 -15 25 c-8 14 -15 19 -16 11 0 -8 -3 -11 -7 -8 -3 4 -12 2 -20
-5 -10 -8 -12 -8 -8 4 4 11 -5 14 -44 14 -27 -1 -53 -5 -57 -9 -5 -4 0 -5 11
-2 16 6 17 5 5 -4 -11 -8 -18 -7 -27 5 -7 10 -13 12 -18 4z m2373 -945 c-3 -3
-9 2 -12 12 -6 14 -5 15 5 6 7 -7 10 -15 7 -18z m-3323 -263 c-3 -3 -11 0 -18
7 -9 10 -8 11 6 5 10 -3 15 -9 12 -12z m3765 -257 c11 -13 10 -14 -4 -9 -9 3
-16 10 -16 15 0 13 6 11 20 -6z m-5040 -519 c0 -2 -7 -7 -16 -10 -8 -3 -12 -2
-9 4 6 10 25 14 25 6z m648 -201 c-3 -3 -9 2 -12 12 -6 14 -5 15 5 6 7 -7 10
-15 7 -18z m12 -615 c0 -5 -2 -10 -4 -10 -3 0 -8 5 -11 10 -3 6 -1 10 4 10 6
0 11 -4 11 -10z m90 -150 c6 -11 8 -20 6 -20 -3 0 -10 9 -16 20 -6 11 -8 20
-6 20 3 0 10 -9 16 -20z m3825 -1019 c3 -5 2 -12 -3 -15 -5 -3 -9 1 -9 9 0 17
3 19 12 6z m25 -305 c0 -2 -7 -7 -16 -10 -8 -3 -12 -2 -9 4 6 10 25 14 25 6z
m-6885 -38 c5 -4 0 -6 -12 -6 -13 1 -19 7 -16 15 3 8 8 10 12 6 3 -4 10 -11
16 -15z m-18 -33 c0 -8 -4 -12 -9 -9 -5 3 -6 10 -3 15 9 13 12 11 12 -6z
m6790 -280 c0 -8 -4 -12 -9 -9 -5 3 -6 10 -3 15 9 13 12 11 12 -6z m-5914
-1045 c3 -11 1 -18 -4 -14 -5 3 -9 12 -9 20 0 20 7 17 13 -6z m8271 -1568 c3
-5 -1 -9 -9 -9 -8 0 -12 4 -9 9 3 4 7 8 9 8 2 0 6 -4 9 -8z m41 -92 l20 -25
-21 18 c-11 9 -24 14 -28 10 -4 -4 -4 1 0 10 3 10 7 17 8 15 1 -2 10 -14 21
-28z m315 -410 c0 -5 -5 -10 -11 -10 -5 0 -7 5 -4 10 3 6 8 10 11 10 2 0 4 -4
4 -10z m-1830 -568 c0 -12 -3 -12 -15 -2 -8 7 -15 13 -15 15 0 1 7 2 15 2 8 0
15 -7 15 -15z m545 -672 c3 -5 1 -10 -4 -10 -6 0 -11 5 -11 10 0 6 2 10 4 10
3 0 8 -4 11 -10z m1945 -240 c6 -11 8 -20 6 -20 -3 0 -10 9 -16 20 -6 11 -8
20 -6 20 3 0 10 -9 16 -20z m35 -108 c-3 -3 -11 0 -18 7 -9 10 -8 11 6 5 10
-3 15 -9 12 -12z m-7740 -372 c3 -6 -1 -7 -9 -4 -18 7 -21 14 -7 14 6 0 13 -4
16 -10z m5760 0 c3 -5 1 -10 -4 -10 -6 0 -11 5 -11 10 0 6 2 10 4 10 3 0 8 -4
11 -10z m1964 -302 c-12 -17 -25 -25 -32 -21 -8 5 -6 9 6 11 10 2 16 10 13 17
-6 16 -1 22 18 22 12 0 11 -7 -5 -29z m-1694 -78 c3 -5 2 -10 -4 -10 -5 0 -13
5 -16 10 -3 6 -2 10 4 10 5 0 13 -4 16 -10z"/>
<path d="M3667 9443 c-4 -3 -7 -11 -7 -17 0 -6 5 -5 12 2 6 6 9 14 7 17 -3 3
-9 2 -12 -2z"/>
<path d="M6705 5340 c-3 -5 -1 -10 4 -10 6 0 11 5 11 10 0 6 -2 10 -4 10 -3 0
-8 -4 -11 -10z"/>
<path d="M7955 840 c3 -5 11 -10 16 -10 6 0 7 5 4 10 -3 6 -11 10 -16 10 -6 0
-7 -4 -4 -10z"/>
<path d="M10131 47 c2 -1 13 -9 24 -17 19 -14 19 -14 6 3 -7 9 -18 17 -24 17
-6 0 -8 -1 -6 -3z"/>
</g>
</svg>
